<?xml version="1.0" encoding="UTF-8" standalone="no"?>
<svg
   xmlns:dc="http://purl.org/dc/elements/1.1/"
   xmlns:cc="http://creativecommons.org/ns#"
   xmlns:rdf="http://www.w3.org/1999/02/22-rdf-syntax-ns#"
   xmlns:svg="http://www.w3.org/2000/svg"
   xmlns="http://www.w3.org/2000/svg"
   xmlns:sodipodi="http://sodipodi.sourceforge.net/DTD/sodipodi-0.dtd"
   xmlns:inkscape="http://www.inkscape.org/namespaces/inkscape"
   width="34.881847mm"
   height="18.734222mm"
   viewBox="0 0 34.881847 18.734222"
   version="1.1"
   id="svg8"
   inkscape:version="1.0.2 (e86c870879, 2021-01-15)"
   sodipodi:docname="full_logo.svg">
  <defs
     id="defs2" />
  <sodipodi:namedview
     id="base"
     pagecolor="#ffffff"
     bordercolor="#666666"
     borderopacity="1.0"
     inkscape:pageopacity="0.0"
     inkscape:pageshadow="2"
     inkscape:zoom="8"
     inkscape:cx="53.800851"
     inkscape:cy="11.230637"
     inkscape:document-units="mm"
     inkscape:current-layer="layer1"
     inkscape:document-rotation="0"
     showgrid="false"
     showguides="false"
     inkscape:window-width="2556"
     inkscape:window-height="1400"
     inkscape:window-x="0"
     inkscape:window-y="18"
     inkscape:window-maximized="0" />
  <metadata
     id="metadata5">
    <rdf:RDF>
      <cc:Work
         rdf:about="">
        <dc:format>image/svg+xml</dc:format>
        <dc:type
           rdf:resource="http://purl.org/dc/dcmitype/StillImage" />
        <dc:title />
      </cc:Work>
    </rdf:RDF>
  </metadata>
  <g
     inkscape:label="Layer 1"
     inkscape:groupmode="layer"
     id="layer1"
     transform="translate(-0.22872815,-12.598777)">
    <path
       style="fill:#4bc800;fill-opacity:1;stroke:none;stroke-width:0.264583px;stroke-linecap:butt;stroke-linejoin:miter;stroke-opacity:1"
       d="m 3.8435058,22.236607 c 0,0 7.3176212,5.349996 11.5077682,0.839751 1.918815,-2.0654 6.091146,-3.965374 9.988731,-5.27579 3.005392,-1.01045 8.160745,-0.02939 8.160745,-0.02939 0,0 -5.869834,-3.684291 -13.313048,-4.853708 -7.443215,-1.169418 -16.4237826,0.739098 -17.8433629,8.068252 -0.056985,0.294207 4.0503779,-6.091785 12.4665089,-5.867281 0.193825,0.0052 -8.7399926,1.394817 -10.9673422,7.118166 z"
       id="path1020"
       sodipodi:nodetypes="csscsssc" />
    <path
       id="text867"
       style="font-style:normal;font-variant:normal;font-weight:normal;font-stretch:normal;font-size:14.366px;line-height:1.25;font-family:Forte;-inkscape-font-specification:Forte;fill:#006400;fill-opacity:1;stroke:none;stroke-width:0.359151"
       d="m 14.863039,15.114854 c 0,0 -10.567953,0.441112 -13.7718327,10.378848 -0.36801857,0.979663 -0.54131712,1.905828 -0.66766399,2.534451 -0.13753656,0.684296 -0.19481416,1.164694 -0.19481416,1.421898 0,0.35541 0.13290285,0.589016 0.39945733,0.701249 0.14964568,0.04677 0.22683522,0.07028 0.23151041,0.07028 0.32735041,0.03741 1.21595741,0.09054 1.81921791,0.09054 0.6453479,0 1.6463001,-0.06456 1.9502693,-0.120666 0.3039665,-0.05612 0.532974,-0.156821 0.6872949,-0.301792 0.2244698,-0.201086 0.4258759,-0.439809 0.6035807,-0.715719 0.1823826,-0.280585 0.2733701,-0.497835 0.2733701,-0.652155 0,-0.13094 -0.081788,-0.196372 -0.2454645,-0.196372 -0.088852,0 -0.3434159,0.04192 -0.7642939,0.12609 -0.6547009,0.130939 -2.2141933,-0.05485 -2.6023371,-0.02212 -0.048523,-6.835865 6.137365,-11.870281 12.2817057,-13.314535 z"
       sodipodi:nodetypes="ccsccssccsssccc" />
    <path
       id="text867-4"
       style="font-style:normal;font-variant:normal;font-weight:normal;font-stretch:normal;font-size:14.366px;line-height:1.25;font-family:Forte;-inkscape-font-specification:Forte;fill:#006400;fill-opacity:1;stroke:none;stroke-width:0.41557"
       d="m 26.172513,16.938041 c -0.524366,0 -1.051225,0.378873 -1.580886,1.136203 -0.529661,0.751803 -1.017156,1.774817 -1.462072,3.068361 -0.444914,1.288017 -0.802723,2.716477 -1.07285,4.286421 -0.270124,1.569941 -0.413131,3.131953 -0.429022,4.685315 v 0.09957 0.08246 0.07513 c 0,0.204537 0.01331,0.345326 0.0398,0.422716 0.02649,0.07739 0.07975,0.163199 0.159201,0.257174 0.201272,0.187951 0.532442,0.281608 0.993247,0.281608 0.429026,0 0.743984,-0.112996 0.945256,-0.33964 0.148304,-0.154783 0.28089,-0.577765 0.397415,-1.268761 0.116525,-0.690997 0.211473,-1.586509 0.285624,-2.686572 l 0.01579,-0.456315 c 0.04237,-0.0056 0.07943,-0.0079 0.1112,-0.0079 0.03708,-0.0056 0.09845,-0.0085 0.183199,-0.0085 0.39195,-0.02765 0.691277,-0.07719 0.897844,-0.14905 0.211865,-0.07739 0.399448,-0.198847 0.563641,-0.364686 0.164196,-0.165839 0.304889,-0.37371 0.421413,-0.622468 0.121824,-0.254287 0.182615,-0.469398 0.182615,-0.646292 0,-0.342734 -0.314959,-0.514347 -0.945255,-0.514347 -0.158899,0 -0.338957,0.01389 -0.540229,0.04154 -0.111234,0 -0.193443,0.0031 -0.246411,0.0085 -0.05297,0 -0.111449,0.0025 -0.175002,0.0079 h -0.111212 c 0.0053,-0.06634 0.0134,-0.140658 0.024,-0.223577 0.01053,-0.08292 0.0187,-0.157851 0.024,-0.224185 0.158898,-1.205098 0.277583,-2.075835 0.357033,-2.612049 0.07945,-0.536211 0.183087,-1.135635 0.310205,-1.798989 0.02649,-0.160313 0.06875,-0.301712 0.127009,-0.423328 0.06356,0.04975 0.10351,0.146434 0.119402,0.290161 0.02119,0.143726 0.03161,0.448277 0.03161,0.912628 v 0.09895 0.157604 c 0,0.464351 0.06369,0.696995 0.190804,0.696995 0.137714,0 0.272612,-0.166176 0.405027,-0.497853 0.137712,-0.331678 0.254084,-0.760099 0.349421,-1.285257 0.09534,-0.530683 0.143399,-1.031008 0.143399,-1.500885 0,-0.315095 -0.06138,-0.555589 -0.183198,-0.721428 -0.116525,-0.171369 -0.293688,-0.257174 -0.532035,-0.257174 z m -15.731018,3.358518 c -0.688559,0 -1.4087965,0.259833 -2.1609162,0.779462 -0.6091096,0.431183 -1.123239,0.97018 -1.5416712,1.616952 -0.3548708,0.552796 -0.6379857,1.146781 -0.849851,1.782497 -0.2065669,0.630189 -0.3096215,1.196985 -0.3096215,1.700031 0,0.657828 0.1985876,1.18595 0.5958319,1.583965 0.3972454,0.392484 0.9270049,0.58887 1.5890826,0.58887 0.2648288,0 0.5664699,-0.05257 0.9054523,-0.157603 0.3389825,-0.110561 0.6776783,-0.257397 1.0166608,-0.439818 0.3389833,-0.187951 0.6915803,-0.419986 1.0570453,-0.696385 0.365468,-0.281927 0.688532,-0.569555 0.969253,-0.862538 0.1536,-0.160311 0.230606,-0.290227 0.230606,-0.389729 0,-0.09398 -0.0689,-0.185221 -0.206612,-0.273666 -0.137711,-0.08844 -0.28651,-0.132557 -0.445409,-0.132557 -0.12712,0 -0.376075,0.140789 -0.746839,0.422716 -0.6355947,0.486459 -1.1514502,0.729982 -1.5486945,0.729978 -0.354872,4e-6 -0.561568,-0.165563 -0.6198299,-0.49724 0.1218222,0.06081 0.2410926,0.09102 0.3576163,0.09102 0.2595338,0 0.5611749,-0.105147 0.9054524,-0.315207 0.3495792,-0.210061 0.7044877,-0.503127 1.0646567,-0.879029 0.439619,-0.447765 0.77079,-0.914859 0.993248,-1.401319 0.227754,-0.486463 0.341227,-0.953553 0.341227,-1.401319 0,-0.574908 -0.143003,-1.025688 -0.429022,-1.351839 -0.28072,-0.331677 -0.669785,-0.49724 -1.167666,-0.497242 z m 7.714794,0.08308 c -0.805086,0 -1.642277,0.300914 -2.510923,0.903465 -0.842159,0.585964 -1.540973,1.299598 -2.097116,2.139847 -0.333688,0.514102 -0.595961,1.039204 -0.786639,1.575415 -0.190677,0.536213 -0.28621,1.00028 -0.28621,1.392768 0,0.635716 0.193375,1.160817 0.580029,1.575414 0.386652,0.414597 0.87646,0.621858 1.469679,0.621858 0.291314,0 0.609169,-0.09668 0.953448,-0.290159 0.349576,-0.193481 0.728224,-0.481108 1.136061,-0.862539 0.413138,-0.386959 0.865888,-0.881237 1.358474,-1.483786 l 0.03102,0.03176 c -0.0089,0.0917 -0.01522,0.205641 -0.01522,0.357968 0,1.426215 0.408177,2.139239 1.223854,2.139239 0.301908,0 0.598337,-0.07493 0.889651,-0.224187 0.291314,-0.154783 0.595852,-0.395278 0.913649,-0.721429 -0.09534,-0.254284 -0.164238,-0.511092 -0.206609,-0.770906 -0.01588,-0.09951 -0.03152,-0.232445 -0.04741,-0.398283 -0.01588,-0.165839 -0.02631,-0.312067 -0.03161,-0.439212 -0.0053,-0.12714 -0.0082,-0.315066 -0.0082,-0.563824 0,-0.475407 0.01564,-0.986606 0.04741,-1.533876 0.02649,-0.248758 0.0398,-0.362363 0.0398,-0.340251 0,-0.232174 -0.03705,-0.3784 -0.111211,-0.439211 -0.07415,-0.06633 -0.254212,-0.09957 -0.540228,-0.09957 0.217161,-0.364845 0.326011,-0.710485 0.326011,-1.036636 0,-0.442235 -0.22001,-0.807209 -0.659629,-1.094665 -0.434324,-0.292983 -0.990131,-0.439208 -1.668096,-0.439208 z m 11.384605,0 c -0.243642,0 -0.518648,0.06344 -0.825851,0.190587 -0.381357,0.149256 -0.643633,0.40365 -0.786638,0.762966 -0.158902,0.420126 -0.238219,0.964563 -0.238219,1.633446 0,0.878949 0.217116,1.857241 0.651436,2.935196 0.195976,0.48646 0.376034,0.893131 0.540231,1.219279 0.164192,0.326151 0.405042,0.767858 0.722838,1.326184 -0.534956,0.254284 -0.940235,0.481493 -1.215661,0.6805 -0.21716,0.154782 -0.397218,0.331221 -0.540228,0.530227 -0.132415,0.210064 -0.23547,0.434248 -0.30962,0.67195 -0.07415,0.237702 -0.111212,0.441938 -0.111212,0.613307 0,0.215589 0.118685,0.323754 0.357032,0.323754 0.286015,0 0.598661,-0.07734 0.937647,-0.232125 0.344277,-0.149256 0.707294,-0.37344 1.088651,-0.67195 0.386651,-0.298511 0.754876,-0.635687 1.104452,-1.011589 0.349579,-0.375902 0.693483,-0.807343 1.032465,-1.293807 0.4714,-0.679937 0.937467,-1.511392 1.398273,-2.49537 0.254239,-0.519629 0.484668,-1.025395 0.691235,-1.517381 0.211865,-0.49199 0.394824,-0.94277 0.548424,-1.35184 0.158898,-0.414597 0.285689,-0.78501 0.381029,-1.111157 0.09533,-0.326151 0.143397,-0.566646 0.143397,-0.721432 0,-0.309566 -0.174851,-0.464254 -0.524426,-0.464254 -0.190679,0 -0.402579,0.06103 -0.635631,0.182647 -0.233052,0.121617 -0.439745,0.276306 -0.61983,0.464257 -0.280721,0.298509 -0.489726,0.723905 -0.627438,1.276702 l -0.1036,0.356745 c -0.09004,0.315091 -0.224943,0.726589 -0.405027,1.235161 -0.317797,0.845779 -0.503066,1.335232 -0.556033,1.467903 -0.169492,0.46435 -0.325812,0.859533 -0.468821,1.185684 h -0.03161 c -0.04767,-0.281926 -0.08993,-0.503086 -0.12701,-0.663395 -0.211862,-1.050316 -0.365873,-2.114416 -0.461213,-3.192369 -0.09004,-1.006089 -0.195994,-1.644794 -0.317814,-1.915664 -0.116527,-0.276398 -0.346957,-0.414162 -0.691238,-0.414162 z m -19.7666364,1.12765 c 0.1218232,0 0.1826109,0.151669 0.1826109,0.455707 0,0.326147 -0.03416,0.677222 -0.1030117,1.053125 -0.068852,0.375901 -0.1643882,0.716101 -0.2862103,1.020139 -0.1536,0.464352 -0.370715,0.876458 -0.6514333,1.235775 -0.1271205,0.171367 -0.3123897,0.34237 -0.5560317,0.513735 -0.042371,-0.21559 -0.0638,-0.381153 -0.0638,-0.49724 0,-0.337207 0.063687,-0.73844 0.1908077,-1.202791 0.1324121,-0.469874 0.3020534,-0.939379 0.5086203,-1.409255 0.3495769,-0.779446 0.6089544,-1.169195 0.7784451,-1.169195 z m 7.6111944,0.01648 c 0.09534,0 0.182765,0.09971 0.262214,0.298712 0.07945,0.193477 0.118817,0.408588 0.118817,0.64629 0,0.4146 -0.148215,0.856917 -0.444828,1.326794 -0.08474,0.165839 -0.127006,0.268569 -0.127006,0.307263 0,0.110561 0.103057,0.165545 0.309621,0.165545 0.169491,0 0.445081,-0.05498 0.826438,-0.165545 l 0.151008,-0.05008 0.03161,0.03298 -0.21422,0.182649 c -0.524363,0.563853 -0.99854,1.017044 -1.422269,1.35978 -0.418433,0.342734 -0.704446,0.514346 -0.858045,0.514346 -0.180085,0 -0.331198,-0.09971 -0.45302,-0.298712 -0.116525,-0.199007 -0.174419,-0.450377 -0.174419,-0.754415 0,-0.458822 0.143004,-0.981508 0.429023,-1.567474 0.291314,-0.585965 0.683276,-1.157586 1.175861,-1.715912 0.174787,-0.187951 0.304476,-0.282217 0.38922,-0.282217 z"
       sodipodi:nodetypes="cccscccsscscscccccscssccccscscccscssccscscsccscscccsssscscscccscsscsssssccccsscccsssccccscsscccsscccsssccsccccssssccccccccccsssccccsccsscscsscccccscsccscsccs" />
  </g>
</svg>
